# xmcd
#
# Track frame offsets:
#	182
#	16562
#	28777
#	40080
#	51645
#	66567
#	83555
#	94082
#	109142
#	119627
#
# Disc length: 1790 seconds
#
# Revision: 1
# Processed by: cddbd v1.5.1PL0 Copyright (c) Steve Scherf et al.
# Submitted via: EasyCDDAExtractor 6.0.0.1
#
DISCID=8306fc0a
DTITLE=Country Sisters - Live in Zürich
DYEAR=1993
DGENRE=Country
TTITLE0=Thank god I'm a country girl
TTITLE1=Dance all night
TTITLE2=All the gold in California
TTITLE3=Willie Jones
TTITLE4=Jole Blon'
TTITLE5=Cotton Fields
TTITLE6=Let's have a party
TTITLE7=The banks of the Ohio
TTITLE8=Fox on the run
TTITLE9=Jambalaya
EXTD=
EXTT0=
EXTT1=
EXTT2=
EXTT3=
EXTT4=
EXTT5=
EXTT6=
EXTT7=
EXTT8=
EXTT9=
PLAYORDER=
